<mxfile host="app.diagrams.net" modified="2023-08-11T08:58:43.022Z" agent="Mozilla/5.0 (Windows NT 10.0; Win64; x64) AppleWebKit/537.36 (KHTML, like Gecko) Chrome/115.0.0.0 Safari/537.36" etag="0kbaU7ZnwZGNeI3NK1jz" version="21.6.8" type="github">
  <diagram id="C5RBs43oDa-KdzZeNtuy" name="Page-1">
    <mxGraphModel dx="1750" dy="890" grid="1" gridSize="10" guides="1" tooltips="1" connect="1" arrows="1" fold="1" page="1" pageScale="1" pageWidth="3000" pageHeight="3000" math="0" shadow="0">
      <root>
        <mxCell id="WIyWlLk6GJQsqaUBKTNV-0" />
        <mxCell id="WIyWlLk6GJQsqaUBKTNV-1" parent="WIyWlLk6GJQsqaUBKTNV-0" />
        <mxCell id="Kg9cEvBB_XG9NirIX-OQ-119" value="" style="edgeStyle=orthogonalEdgeStyle;rounded=0;orthogonalLoop=1;jettySize=auto;html=1;" edge="1" parent="WIyWlLk6GJQsqaUBKTNV-1" source="Kg9cEvBB_XG9NirIX-OQ-0" target="Kg9cEvBB_XG9NirIX-OQ-118">
          <mxGeometry relative="1" as="geometry" />
        </mxCell>
        <mxCell id="Kg9cEvBB_XG9NirIX-OQ-0" value="BẮT ĐẦU&amp;nbsp;" style="ellipse;whiteSpace=wrap;html=1;" vertex="1" parent="WIyWlLk6GJQsqaUBKTNV-1">
          <mxGeometry x="531.29" y="350" width="144.35" height="60" as="geometry" />
        </mxCell>
        <mxCell id="Kg9cEvBB_XG9NirIX-OQ-4" value="Kiểm tra trạng thái &lt;br&gt;công tắc &lt;br&gt;chuyển chế độ WiFi" style="rhombus;whiteSpace=wrap;html=1;" vertex="1" parent="WIyWlLk6GJQsqaUBKTNV-1">
          <mxGeometry x="526.48" y="530" width="154.24" height="110" as="geometry" />
        </mxCell>
        <mxCell id="Kg9cEvBB_XG9NirIX-OQ-189" value="" style="edgeStyle=orthogonalEdgeStyle;rounded=0;orthogonalLoop=1;jettySize=auto;html=1;" edge="1" parent="WIyWlLk6GJQsqaUBKTNV-1" source="Kg9cEvBB_XG9NirIX-OQ-27" target="Kg9cEvBB_XG9NirIX-OQ-188">
          <mxGeometry relative="1" as="geometry" />
        </mxCell>
        <mxCell id="Kg9cEvBB_XG9NirIX-OQ-27" value="Chế độ WiFi Station&amp;nbsp;" style="whiteSpace=wrap;html=1;" vertex="1" parent="WIyWlLk6GJQsqaUBKTNV-1">
          <mxGeometry x="536.8" y="680" width="133.6" height="70" as="geometry" />
        </mxCell>
        <mxCell id="Kg9cEvBB_XG9NirIX-OQ-59" style="edgeStyle=orthogonalEdgeStyle;rounded=0;orthogonalLoop=1;jettySize=auto;html=1;exitX=0.5;exitY=1;exitDx=0;exitDy=0;entryX=0;entryY=0.5;entryDx=0;entryDy=0;" edge="1" parent="WIyWlLk6GJQsqaUBKTNV-1" source="Kg9cEvBB_XG9NirIX-OQ-45" target="Kg9cEvBB_XG9NirIX-OQ-65">
          <mxGeometry relative="1" as="geometry">
            <mxPoint x="1730" y="670" as="sourcePoint" />
            <mxPoint x="1780" y="1045" as="targetPoint" />
          </mxGeometry>
        </mxCell>
        <mxCell id="Kg9cEvBB_XG9NirIX-OQ-45" value="Lấy giá trị từ EEPROM" style="whiteSpace=wrap;html=1;" vertex="1" parent="WIyWlLk6GJQsqaUBKTNV-1">
          <mxGeometry x="1720" y="610" width="120" height="60" as="geometry" />
        </mxCell>
        <mxCell id="Kg9cEvBB_XG9NirIX-OQ-47" value="Info.SSID_ST = value1;" style="whiteSpace=wrap;html=1;" vertex="1" parent="WIyWlLk6GJQsqaUBKTNV-1">
          <mxGeometry x="1830" y="730" width="220" height="30" as="geometry" />
        </mxCell>
        <mxCell id="Kg9cEvBB_XG9NirIX-OQ-49" value="Info.Pass_ST = value2;" style="whiteSpace=wrap;html=1;" vertex="1" parent="WIyWlLk6GJQsqaUBKTNV-1">
          <mxGeometry x="1830" y="780" width="220" height="30" as="geometry" />
        </mxCell>
        <mxCell id="Kg9cEvBB_XG9NirIX-OQ-108" style="edgeStyle=orthogonalEdgeStyle;rounded=0;orthogonalLoop=1;jettySize=auto;html=1;exitX=1;exitY=0.5;exitDx=0;exitDy=0;entryX=0;entryY=0.5;entryDx=0;entryDy=0;" edge="1" parent="WIyWlLk6GJQsqaUBKTNV-1" source="Kg9cEvBB_XG9NirIX-OQ-51" target="Kg9cEvBB_XG9NirIX-OQ-91">
          <mxGeometry relative="1" as="geometry" />
        </mxCell>
        <mxCell id="Kg9cEvBB_XG9NirIX-OQ-51" value="Info.SSID_AP = value3;" style="whiteSpace=wrap;html=1;" vertex="1" parent="WIyWlLk6GJQsqaUBKTNV-1">
          <mxGeometry x="1830" y="830" width="220" height="30" as="geometry" />
        </mxCell>
        <mxCell id="Kg9cEvBB_XG9NirIX-OQ-113" style="edgeStyle=orthogonalEdgeStyle;rounded=0;orthogonalLoop=1;jettySize=auto;html=1;exitX=1;exitY=0.5;exitDx=0;exitDy=0;entryX=0;entryY=0.5;entryDx=0;entryDy=0;" edge="1" parent="WIyWlLk6GJQsqaUBKTNV-1" source="Kg9cEvBB_XG9NirIX-OQ-53" target="Kg9cEvBB_XG9NirIX-OQ-91">
          <mxGeometry relative="1" as="geometry" />
        </mxCell>
        <mxCell id="Kg9cEvBB_XG9NirIX-OQ-53" value="Info.Pass_AP = value4;" style="whiteSpace=wrap;html=1;" vertex="1" parent="WIyWlLk6GJQsqaUBKTNV-1">
          <mxGeometry x="1830" y="880" width="220" height="30" as="geometry" />
        </mxCell>
        <mxCell id="Kg9cEvBB_XG9NirIX-OQ-55" value="Info.IP_serrver = value5;" style="whiteSpace=wrap;html=1;" vertex="1" parent="WIyWlLk6GJQsqaUBKTNV-1">
          <mxGeometry x="1830" y="930" width="220" height="30" as="geometry" />
        </mxCell>
        <mxCell id="Kg9cEvBB_XG9NirIX-OQ-57" value="Info.Porrt_Server = value6.toInt();" style="whiteSpace=wrap;html=1;" vertex="1" parent="WIyWlLk6GJQsqaUBKTNV-1">
          <mxGeometry x="1830" y="980" width="220" height="30" as="geometry" />
        </mxCell>
        <mxCell id="Kg9cEvBB_XG9NirIX-OQ-65" value="Info.Home_location = value7;" style="whiteSpace=wrap;html=1;" vertex="1" parent="WIyWlLk6GJQsqaUBKTNV-1">
          <mxGeometry x="1830" y="1030" width="220" height="30" as="geometry" />
        </mxCell>
        <mxCell id="Kg9cEvBB_XG9NirIX-OQ-83" value="" style="edgeStyle=orthogonalEdgeStyle;rounded=0;orthogonalLoop=1;jettySize=auto;html=1;" edge="1" parent="WIyWlLk6GJQsqaUBKTNV-1" source="Kg9cEvBB_XG9NirIX-OQ-80" target="Kg9cEvBB_XG9NirIX-OQ-82">
          <mxGeometry relative="1" as="geometry" />
        </mxCell>
        <mxCell id="Kg9cEvBB_XG9NirIX-OQ-80" value="ACCESS POINT MODE" style="ellipse;whiteSpace=wrap;html=1;" vertex="1" parent="WIyWlLk6GJQsqaUBKTNV-1">
          <mxGeometry x="1720" y="420" width="120" height="80" as="geometry" />
        </mxCell>
        <mxCell id="Kg9cEvBB_XG9NirIX-OQ-84" style="edgeStyle=orthogonalEdgeStyle;rounded=0;orthogonalLoop=1;jettySize=auto;html=1;" edge="1" parent="WIyWlLk6GJQsqaUBKTNV-1" source="Kg9cEvBB_XG9NirIX-OQ-82" target="Kg9cEvBB_XG9NirIX-OQ-45">
          <mxGeometry relative="1" as="geometry" />
        </mxCell>
        <mxCell id="Kg9cEvBB_XG9NirIX-OQ-82" value="Khởi tạo websever&amp;nbsp;" style="whiteSpace=wrap;html=1;" vertex="1" parent="WIyWlLk6GJQsqaUBKTNV-1">
          <mxGeometry x="1730" y="540" width="100" height="50" as="geometry" />
        </mxCell>
        <mxCell id="Kg9cEvBB_XG9NirIX-OQ-94" value="" style="edgeStyle=orthogonalEdgeStyle;rounded=0;orthogonalLoop=1;jettySize=auto;html=1;" edge="1" parent="WIyWlLk6GJQsqaUBKTNV-1" source="Kg9cEvBB_XG9NirIX-OQ-91" target="Kg9cEvBB_XG9NirIX-OQ-93">
          <mxGeometry relative="1" as="geometry" />
        </mxCell>
        <mxCell id="Kg9cEvBB_XG9NirIX-OQ-91" value="Load trang web chỉnh sửa thông tin Robot&amp;nbsp;" style="whiteSpace=wrap;html=1;" vertex="1" parent="WIyWlLk6GJQsqaUBKTNV-1">
          <mxGeometry x="2230" y="815" width="130" height="60" as="geometry" />
        </mxCell>
        <mxCell id="Kg9cEvBB_XG9NirIX-OQ-104" value="" style="edgeStyle=orthogonalEdgeStyle;rounded=0;orthogonalLoop=1;jettySize=auto;html=1;" edge="1" parent="WIyWlLk6GJQsqaUBKTNV-1" source="Kg9cEvBB_XG9NirIX-OQ-93" target="Kg9cEvBB_XG9NirIX-OQ-103">
          <mxGeometry relative="1" as="geometry" />
        </mxCell>
        <mxCell id="Kg9cEvBB_XG9NirIX-OQ-93" value="IF&lt;br&gt;server_robot.on(&quot;/submit-form&quot;, HTTP_POST, handleFormSubmit);" style="rhombus;whiteSpace=wrap;html=1;" vertex="1" parent="WIyWlLk6GJQsqaUBKTNV-1">
          <mxGeometry x="2220" y="930.0000000000001" width="244.37" height="160" as="geometry" />
        </mxCell>
        <mxCell id="Kg9cEvBB_XG9NirIX-OQ-95" value="" style="endArrow=classic;html=1;rounded=0;entryX=0;entryY=0.5;entryDx=0;entryDy=0;" edge="1" parent="WIyWlLk6GJQsqaUBKTNV-1" target="Kg9cEvBB_XG9NirIX-OQ-47">
          <mxGeometry width="50" height="50" relative="1" as="geometry">
            <mxPoint x="1780" y="745" as="sourcePoint" />
            <mxPoint x="1780" y="800" as="targetPoint" />
          </mxGeometry>
        </mxCell>
        <mxCell id="Kg9cEvBB_XG9NirIX-OQ-96" value="" style="endArrow=classic;html=1;rounded=0;entryX=0;entryY=0.5;entryDx=0;entryDy=0;" edge="1" parent="WIyWlLk6GJQsqaUBKTNV-1" target="Kg9cEvBB_XG9NirIX-OQ-49">
          <mxGeometry width="50" height="50" relative="1" as="geometry">
            <mxPoint x="1780" y="795" as="sourcePoint" />
            <mxPoint x="1820" y="760" as="targetPoint" />
          </mxGeometry>
        </mxCell>
        <mxCell id="Kg9cEvBB_XG9NirIX-OQ-97" value="" style="endArrow=classic;html=1;rounded=0;entryX=0;entryY=0.5;entryDx=0;entryDy=0;" edge="1" parent="WIyWlLk6GJQsqaUBKTNV-1" target="Kg9cEvBB_XG9NirIX-OQ-51">
          <mxGeometry width="50" height="50" relative="1" as="geometry">
            <mxPoint x="1780" y="845" as="sourcePoint" />
            <mxPoint x="1820" y="840" as="targetPoint" />
          </mxGeometry>
        </mxCell>
        <mxCell id="Kg9cEvBB_XG9NirIX-OQ-98" value="" style="endArrow=classic;html=1;rounded=0;entryX=0;entryY=0.5;entryDx=0;entryDy=0;" edge="1" parent="WIyWlLk6GJQsqaUBKTNV-1" target="Kg9cEvBB_XG9NirIX-OQ-53">
          <mxGeometry width="50" height="50" relative="1" as="geometry">
            <mxPoint x="1780" y="895" as="sourcePoint" />
            <mxPoint x="1820" y="930" as="targetPoint" />
          </mxGeometry>
        </mxCell>
        <mxCell id="Kg9cEvBB_XG9NirIX-OQ-99" value="" style="endArrow=classic;html=1;rounded=0;entryX=0;entryY=0.5;entryDx=0;entryDy=0;" edge="1" parent="WIyWlLk6GJQsqaUBKTNV-1" target="Kg9cEvBB_XG9NirIX-OQ-55">
          <mxGeometry width="50" height="50" relative="1" as="geometry">
            <mxPoint x="1780" y="945" as="sourcePoint" />
            <mxPoint x="1820" y="940" as="targetPoint" />
          </mxGeometry>
        </mxCell>
        <mxCell id="Kg9cEvBB_XG9NirIX-OQ-100" value="" style="endArrow=classic;html=1;rounded=0;entryX=0;entryY=0.5;entryDx=0;entryDy=0;" edge="1" parent="WIyWlLk6GJQsqaUBKTNV-1" target="Kg9cEvBB_XG9NirIX-OQ-57">
          <mxGeometry width="50" height="50" relative="1" as="geometry">
            <mxPoint x="1780" y="995" as="sourcePoint" />
            <mxPoint x="1820" y="930" as="targetPoint" />
          </mxGeometry>
        </mxCell>
        <mxCell id="Kg9cEvBB_XG9NirIX-OQ-106" value="" style="edgeStyle=orthogonalEdgeStyle;rounded=0;orthogonalLoop=1;jettySize=auto;html=1;" edge="1" parent="WIyWlLk6GJQsqaUBKTNV-1" source="Kg9cEvBB_XG9NirIX-OQ-103" target="Kg9cEvBB_XG9NirIX-OQ-105">
          <mxGeometry relative="1" as="geometry" />
        </mxCell>
        <mxCell id="Kg9cEvBB_XG9NirIX-OQ-103" value="Chỉnh sửa thông tin Robot&amp;nbsp;" style="whiteSpace=wrap;html=1;" vertex="1" parent="WIyWlLk6GJQsqaUBKTNV-1">
          <mxGeometry x="2520" y="978.8900000000001" width="120" height="61.11" as="geometry" />
        </mxCell>
        <mxCell id="Kg9cEvBB_XG9NirIX-OQ-105" value="Lưu thông tin vào Robot&amp;nbsp;" style="whiteSpace=wrap;html=1;" vertex="1" parent="WIyWlLk6GJQsqaUBKTNV-1">
          <mxGeometry x="2689.9950000000003" y="978.8900000000001" width="120" height="60" as="geometry" />
        </mxCell>
        <mxCell id="Kg9cEvBB_XG9NirIX-OQ-122" style="edgeStyle=orthogonalEdgeStyle;rounded=0;orthogonalLoop=1;jettySize=auto;html=1;exitX=0.5;exitY=1;exitDx=0;exitDy=0;entryX=0.5;entryY=0;entryDx=0;entryDy=0;" edge="1" parent="WIyWlLk6GJQsqaUBKTNV-1" source="Kg9cEvBB_XG9NirIX-OQ-118" target="Kg9cEvBB_XG9NirIX-OQ-4">
          <mxGeometry relative="1" as="geometry" />
        </mxCell>
        <mxCell id="Kg9cEvBB_XG9NirIX-OQ-118" value="Khởi động Robot , lấy thông tin của Robot từ EEPROM" style="whiteSpace=wrap;html=1;" vertex="1" parent="WIyWlLk6GJQsqaUBKTNV-1">
          <mxGeometry x="531.29" y="440" width="144.61" height="60" as="geometry" />
        </mxCell>
        <mxCell id="Kg9cEvBB_XG9NirIX-OQ-147" value="" style="edgeStyle=orthogonalEdgeStyle;rounded=0;orthogonalLoop=1;jettySize=auto;html=1;" edge="1" parent="WIyWlLk6GJQsqaUBKTNV-1" source="Kg9cEvBB_XG9NirIX-OQ-143" target="Kg9cEvBB_XG9NirIX-OQ-146">
          <mxGeometry relative="1" as="geometry" />
        </mxCell>
        <mxCell id="Kg9cEvBB_XG9NirIX-OQ-143" value="Chế độ WiFi Access Point&amp;nbsp;" style="rounded=0;whiteSpace=wrap;html=1;" vertex="1" parent="WIyWlLk6GJQsqaUBKTNV-1">
          <mxGeometry x="730" y="680" width="120" height="70" as="geometry" />
        </mxCell>
        <mxCell id="Kg9cEvBB_XG9NirIX-OQ-149" style="edgeStyle=orthogonalEdgeStyle;rounded=0;orthogonalLoop=1;jettySize=auto;html=1;exitX=0.5;exitY=1;exitDx=0;exitDy=0;entryX=0.5;entryY=0;entryDx=0;entryDy=0;" edge="1" parent="WIyWlLk6GJQsqaUBKTNV-1" source="Kg9cEvBB_XG9NirIX-OQ-146" target="Kg9cEvBB_XG9NirIX-OQ-148">
          <mxGeometry relative="1" as="geometry" />
        </mxCell>
        <mxCell id="Kg9cEvBB_XG9NirIX-OQ-146" value="Lấy thông tin của Robot đã lưu từ EEPROM&amp;nbsp;" style="whiteSpace=wrap;html=1;rounded=0;" vertex="1" parent="WIyWlLk6GJQsqaUBKTNV-1">
          <mxGeometry x="730" y="780" width="120" height="60" as="geometry" />
        </mxCell>
        <mxCell id="Kg9cEvBB_XG9NirIX-OQ-161" value="" style="edgeStyle=orthogonalEdgeStyle;rounded=0;orthogonalLoop=1;jettySize=auto;html=1;" edge="1" parent="WIyWlLk6GJQsqaUBKTNV-1" source="Kg9cEvBB_XG9NirIX-OQ-148" target="Kg9cEvBB_XG9NirIX-OQ-160">
          <mxGeometry relative="1" as="geometry" />
        </mxCell>
        <mxCell id="Kg9cEvBB_XG9NirIX-OQ-148" value="Load trang web chỉnh sửa thông tin Robot&amp;nbsp;" style="whiteSpace=wrap;html=1;" vertex="1" parent="WIyWlLk6GJQsqaUBKTNV-1">
          <mxGeometry x="730" y="870" width="125" height="60" as="geometry" />
        </mxCell>
        <mxCell id="Kg9cEvBB_XG9NirIX-OQ-155" value="" style="endArrow=classic;html=1;rounded=0;exitX=0.5;exitY=1;exitDx=0;exitDy=0;entryX=0.5;entryY=0;entryDx=0;entryDy=0;" edge="1" parent="WIyWlLk6GJQsqaUBKTNV-1" source="Kg9cEvBB_XG9NirIX-OQ-4" target="Kg9cEvBB_XG9NirIX-OQ-27">
          <mxGeometry relative="1" as="geometry">
            <mxPoint x="600" y="660" as="sourcePoint" />
            <mxPoint x="700" y="660" as="targetPoint" />
            <Array as="points" />
          </mxGeometry>
        </mxCell>
        <mxCell id="Kg9cEvBB_XG9NirIX-OQ-156" value="Đóng&amp;nbsp;" style="edgeLabel;resizable=0;html=1;align=center;verticalAlign=middle;" connectable="0" vertex="1" parent="Kg9cEvBB_XG9NirIX-OQ-155">
          <mxGeometry relative="1" as="geometry">
            <mxPoint as="offset" />
          </mxGeometry>
        </mxCell>
        <mxCell id="Kg9cEvBB_XG9NirIX-OQ-157" value="" style="endArrow=classic;html=1;rounded=0;entryX=0.5;entryY=0;entryDx=0;entryDy=0;exitX=1;exitY=0.5;exitDx=0;exitDy=0;" edge="1" parent="WIyWlLk6GJQsqaUBKTNV-1" source="Kg9cEvBB_XG9NirIX-OQ-4" target="Kg9cEvBB_XG9NirIX-OQ-143">
          <mxGeometry relative="1" as="geometry">
            <mxPoint x="720" y="584.5" as="sourcePoint" />
            <mxPoint x="820" y="584.5" as="targetPoint" />
            <Array as="points">
              <mxPoint x="790" y="585" />
            </Array>
          </mxGeometry>
        </mxCell>
        <mxCell id="Kg9cEvBB_XG9NirIX-OQ-158" value="Mở" style="edgeLabel;resizable=0;html=1;align=center;verticalAlign=middle;" connectable="0" vertex="1" parent="Kg9cEvBB_XG9NirIX-OQ-157">
          <mxGeometry relative="1" as="geometry">
            <mxPoint x="-38" as="offset" />
          </mxGeometry>
        </mxCell>
        <mxCell id="Kg9cEvBB_XG9NirIX-OQ-163" value="" style="edgeStyle=orthogonalEdgeStyle;rounded=0;orthogonalLoop=1;jettySize=auto;html=1;" edge="1" parent="WIyWlLk6GJQsqaUBKTNV-1" source="Kg9cEvBB_XG9NirIX-OQ-160" target="Kg9cEvBB_XG9NirIX-OQ-162">
          <mxGeometry relative="1" as="geometry" />
        </mxCell>
        <mxCell id="Kg9cEvBB_XG9NirIX-OQ-160" value="Thực hiện chỉnh sửa thông tin Robot&amp;nbsp;" style="whiteSpace=wrap;html=1;" vertex="1" parent="WIyWlLk6GJQsqaUBKTNV-1">
          <mxGeometry x="730" y="960" width="125" height="60" as="geometry" />
        </mxCell>
        <mxCell id="Kg9cEvBB_XG9NirIX-OQ-168" style="edgeStyle=orthogonalEdgeStyle;rounded=0;orthogonalLoop=1;jettySize=auto;html=1;exitX=1;exitY=0.5;exitDx=0;exitDy=0;" edge="1" parent="WIyWlLk6GJQsqaUBKTNV-1" source="Kg9cEvBB_XG9NirIX-OQ-162">
          <mxGeometry relative="1" as="geometry">
            <mxPoint x="790" y="760" as="targetPoint" />
            <mxPoint x="862" y="1080" as="sourcePoint" />
            <Array as="points">
              <mxPoint x="890" y="1080" />
              <mxPoint x="890" y="760" />
            </Array>
          </mxGeometry>
        </mxCell>
        <mxCell id="Kg9cEvBB_XG9NirIX-OQ-162" value="Lưu thông tin đã chỉnh sửa vào eeprom&amp;nbsp;" style="whiteSpace=wrap;html=1;" vertex="1" parent="WIyWlLk6GJQsqaUBKTNV-1">
          <mxGeometry x="730" y="1050" width="125" height="60" as="geometry" />
        </mxCell>
        <mxCell id="Kg9cEvBB_XG9NirIX-OQ-172" value="Kiểm tra kết nối &lt;br&gt;module WiFi" style="rhombus;whiteSpace=wrap;html=1;" vertex="1" parent="WIyWlLk6GJQsqaUBKTNV-1">
          <mxGeometry x="528.6" y="880" width="150" height="110" as="geometry" />
        </mxCell>
        <mxCell id="Kg9cEvBB_XG9NirIX-OQ-175" value="Kiểm tra kết nối sever&lt;br&gt;thông qua Websocket&amp;nbsp;" style="rhombus;whiteSpace=wrap;html=1;" vertex="1" parent="WIyWlLk6GJQsqaUBKTNV-1">
          <mxGeometry x="528.6" y="1040" width="150" height="110" as="geometry" />
        </mxCell>
        <mxCell id="Kg9cEvBB_XG9NirIX-OQ-178" value="" style="endArrow=classic;html=1;rounded=0;exitX=0.5;exitY=1;exitDx=0;exitDy=0;entryX=0.5;entryY=0;entryDx=0;entryDy=0;" edge="1" parent="WIyWlLk6GJQsqaUBKTNV-1" source="Kg9cEvBB_XG9NirIX-OQ-172" target="Kg9cEvBB_XG9NirIX-OQ-175">
          <mxGeometry relative="1" as="geometry">
            <mxPoint x="597.04" y="1020" as="sourcePoint" />
            <mxPoint x="697.04" y="1020" as="targetPoint" />
          </mxGeometry>
        </mxCell>
        <mxCell id="Kg9cEvBB_XG9NirIX-OQ-179" value="True" style="edgeLabel;resizable=0;html=1;align=center;verticalAlign=middle;" connectable="0" vertex="1" parent="Kg9cEvBB_XG9NirIX-OQ-178">
          <mxGeometry relative="1" as="geometry" />
        </mxCell>
        <mxCell id="Kg9cEvBB_XG9NirIX-OQ-180" value="" style="endArrow=classic;html=1;rounded=0;exitX=0.5;exitY=1;exitDx=0;exitDy=0;" edge="1" parent="WIyWlLk6GJQsqaUBKTNV-1" source="Kg9cEvBB_XG9NirIX-OQ-175">
          <mxGeometry relative="1" as="geometry">
            <mxPoint x="603.1199999999999" y="1170" as="sourcePoint" />
            <mxPoint x="603" y="1200" as="targetPoint" />
          </mxGeometry>
        </mxCell>
        <mxCell id="Kg9cEvBB_XG9NirIX-OQ-181" value="True" style="edgeLabel;resizable=0;html=1;align=center;verticalAlign=middle;" connectable="0" vertex="1" parent="Kg9cEvBB_XG9NirIX-OQ-180">
          <mxGeometry relative="1" as="geometry" />
        </mxCell>
        <mxCell id="Kg9cEvBB_XG9NirIX-OQ-182" value="" style="endArrow=classic;html=1;rounded=0;exitX=0;exitY=0.5;exitDx=0;exitDy=0;" edge="1" parent="WIyWlLk6GJQsqaUBKTNV-1" source="Kg9cEvBB_XG9NirIX-OQ-172">
          <mxGeometry relative="1" as="geometry">
            <mxPoint x="477.04" y="960" as="sourcePoint" />
            <mxPoint x="437.04" y="935" as="targetPoint" />
          </mxGeometry>
        </mxCell>
        <mxCell id="Kg9cEvBB_XG9NirIX-OQ-183" value="False" style="edgeLabel;resizable=0;html=1;align=center;verticalAlign=middle;" connectable="0" vertex="1" parent="Kg9cEvBB_XG9NirIX-OQ-182">
          <mxGeometry relative="1" as="geometry">
            <mxPoint as="offset" />
          </mxGeometry>
        </mxCell>
        <mxCell id="Kg9cEvBB_XG9NirIX-OQ-185" style="edgeStyle=orthogonalEdgeStyle;rounded=0;orthogonalLoop=1;jettySize=auto;html=1;exitX=0.5;exitY=0;exitDx=0;exitDy=0;entryX=0;entryY=0.5;entryDx=0;entryDy=0;" edge="1" parent="WIyWlLk6GJQsqaUBKTNV-1" source="Kg9cEvBB_XG9NirIX-OQ-184" target="Kg9cEvBB_XG9NirIX-OQ-4">
          <mxGeometry relative="1" as="geometry" />
        </mxCell>
        <mxCell id="Kg9cEvBB_XG9NirIX-OQ-184" value="Đổi trạng thái công tắc chuyển chế độ WiFi" style="rounded=0;whiteSpace=wrap;html=1;" vertex="1" parent="WIyWlLk6GJQsqaUBKTNV-1">
          <mxGeometry x="317.04" y="905" width="120" height="60" as="geometry" />
        </mxCell>
        <mxCell id="Kg9cEvBB_XG9NirIX-OQ-192" style="edgeStyle=orthogonalEdgeStyle;rounded=0;orthogonalLoop=1;jettySize=auto;html=1;exitX=0.5;exitY=1;exitDx=0;exitDy=0;entryX=0.5;entryY=0;entryDx=0;entryDy=0;" edge="1" parent="WIyWlLk6GJQsqaUBKTNV-1" source="Kg9cEvBB_XG9NirIX-OQ-188" target="Kg9cEvBB_XG9NirIX-OQ-172">
          <mxGeometry relative="1" as="geometry" />
        </mxCell>
        <mxCell id="Kg9cEvBB_XG9NirIX-OQ-188" value="Cập nhật thông tin Wifi của chế độ Station&amp;nbsp;" style="whiteSpace=wrap;html=1;" vertex="1" parent="WIyWlLk6GJQsqaUBKTNV-1">
          <mxGeometry x="536.66" y="780" width="133.6" height="70" as="geometry" />
        </mxCell>
        <mxCell id="Kg9cEvBB_XG9NirIX-OQ-193" value="" style="endArrow=classic;html=1;rounded=0;exitX=0;exitY=0.5;exitDx=0;exitDy=0;" edge="1" parent="WIyWlLk6GJQsqaUBKTNV-1" source="Kg9cEvBB_XG9NirIX-OQ-175">
          <mxGeometry relative="1" as="geometry">
            <mxPoint x="510" y="1094.52" as="sourcePoint" />
            <mxPoint x="604" y="1000" as="targetPoint" />
            <Array as="points">
              <mxPoint x="440" y="1095" />
              <mxPoint x="440" y="1000" />
            </Array>
          </mxGeometry>
        </mxCell>
        <mxCell id="Kg9cEvBB_XG9NirIX-OQ-194" value="False" style="edgeLabel;resizable=0;html=1;align=center;verticalAlign=middle;" connectable="0" vertex="1" parent="Kg9cEvBB_XG9NirIX-OQ-193">
          <mxGeometry relative="1" as="geometry">
            <mxPoint x="-3" y="50" as="offset" />
          </mxGeometry>
        </mxCell>
        <mxCell id="Kg9cEvBB_XG9NirIX-OQ-198" value="" style="edgeStyle=orthogonalEdgeStyle;rounded=0;orthogonalLoop=1;jettySize=auto;html=1;" edge="1" parent="WIyWlLk6GJQsqaUBKTNV-1" source="Kg9cEvBB_XG9NirIX-OQ-196" target="Kg9cEvBB_XG9NirIX-OQ-197">
          <mxGeometry relative="1" as="geometry" />
        </mxCell>
        <mxCell id="Kg9cEvBB_XG9NirIX-OQ-196" value="Xử lý trạng thái của Robot&amp;nbsp;" style="rounded=0;whiteSpace=wrap;html=1;" vertex="1" parent="WIyWlLk6GJQsqaUBKTNV-1">
          <mxGeometry x="543.46" y="1200" width="120" height="60" as="geometry" />
        </mxCell>
        <mxCell id="Kg9cEvBB_XG9NirIX-OQ-200" value="" style="edgeStyle=orthogonalEdgeStyle;rounded=0;orthogonalLoop=1;jettySize=auto;html=1;" edge="1" parent="WIyWlLk6GJQsqaUBKTNV-1" source="Kg9cEvBB_XG9NirIX-OQ-197" target="Kg9cEvBB_XG9NirIX-OQ-199">
          <mxGeometry relative="1" as="geometry" />
        </mxCell>
        <mxCell id="Kg9cEvBB_XG9NirIX-OQ-197" value="Xử lý các lệnh nhận được từ server" style="rounded=0;whiteSpace=wrap;html=1;" vertex="1" parent="WIyWlLk6GJQsqaUBKTNV-1">
          <mxGeometry x="543.6" y="1290" width="120" height="60" as="geometry" />
        </mxCell>
        <mxCell id="Kg9cEvBB_XG9NirIX-OQ-202" value="" style="edgeStyle=orthogonalEdgeStyle;rounded=0;orthogonalLoop=1;jettySize=auto;html=1;" edge="1" parent="WIyWlLk6GJQsqaUBKTNV-1" source="Kg9cEvBB_XG9NirIX-OQ-199" target="Kg9cEvBB_XG9NirIX-OQ-201">
          <mxGeometry relative="1" as="geometry" />
        </mxCell>
        <mxCell id="Kg9cEvBB_XG9NirIX-OQ-199" value="Thực hiện lệnh từ server&amp;nbsp;" style="rounded=0;whiteSpace=wrap;html=1;" vertex="1" parent="WIyWlLk6GJQsqaUBKTNV-1">
          <mxGeometry x="543.6" y="1380" width="120" height="60" as="geometry" />
        </mxCell>
        <mxCell id="Kg9cEvBB_XG9NirIX-OQ-203" style="edgeStyle=orthogonalEdgeStyle;rounded=0;orthogonalLoop=1;jettySize=auto;html=1;exitX=0;exitY=0.5;exitDx=0;exitDy=0;" edge="1" parent="WIyWlLk6GJQsqaUBKTNV-1" source="Kg9cEvBB_XG9NirIX-OQ-201">
          <mxGeometry relative="1" as="geometry">
            <mxPoint x="604" y="1160" as="targetPoint" />
            <Array as="points">
              <mxPoint x="480" y="1500" />
              <mxPoint x="480" y="1160" />
            </Array>
          </mxGeometry>
        </mxCell>
        <mxCell id="Kg9cEvBB_XG9NirIX-OQ-201" value="Gửi dữ liệu thông tin, trạng thái, nhiệm vụ của Robot về server&amp;nbsp;" style="rounded=0;whiteSpace=wrap;html=1;" vertex="1" parent="WIyWlLk6GJQsqaUBKTNV-1">
          <mxGeometry x="543.6" y="1470" width="120" height="60" as="geometry" />
        </mxCell>
      </root>
    </mxGraphModel>
  </diagram>
</mxfile>
